<?xml version="1.0" standalone="no"?>
<!DOCTYPE svg PUBLIC "-//W3C//DTD SVG 20010904//EN"
 "http://www.w3.org/TR/2001/REC-SVG-20010904/DTD/svg10.dtd">
<svg version="1.0" xmlns="http://www.w3.org/2000/svg"
 width="500.000000pt" height="500.000000pt" viewBox="0 0 500.000000 500.000000"
 preserveAspectRatio="xMidYMid meet">

<g transform="translate(0.000000,500.000000) scale(0.100000,-0.100000)"
fill="#022c22" stroke="#022c22" stroke-width = "8rem">
<path d="M1310 3878 c-338 -104 -618 -195 -622 -201 -13 -20 -10 -937 3 -937
5 0 8 -4 5 -9 -8 -13 1771 -1774 1784 -1766 6 4 18 1 26 -6 13 -11 144 116
904 876 489 489 887 892 884 897 -3 4 0 8 5 8 8 0 11 145 11 468 l0 469 -57
15 c-358 98 -1296 339 -1306 335 -6 -3 -117 -187 -246 -411 -129 -223 -237
-406 -241 -406 -4 0 -116 194 -250 430 -205 364 -245 429 -257 418 -10 -8 -17
-8 -21 -1 -5 6 -228 -58 -622 -179z m839 -366 c133 -236 241 -433 241 -438 1
-17 39 -56 50 -49 5 3 18 1 29 -4 17 -9 23 -5 44 32 254 444 469 816 479 829
12 16 54 6 563 -128 303 -79 569 -149 593 -155 l42 -11 0 -402 0 -401 -845
-845 -845 -845 -167 166 c-93 90 -477 471 -855 846 l-688 681 0 400 c0 298 3
403 12 408 10 6 1081 341 1100 343 3 1 115 -192 247 -427z"/>
</g>
</svg>
