<?xml version="1.0" standalone="no"?>
<!DOCTYPE svg PUBLIC "-//W3C//DTD SVG 20010904//EN"
 "http://www.w3.org/TR/2001/REC-SVG-20010904/DTD/svg10.dtd">
<svg version="1.0" xmlns="http://www.w3.org/2000/svg"
 width="500.000000pt" height="500.000000pt" viewBox="0 0 500.000000 500.000000"
 preserveAspectRatio="xMidYMid meet">

<g transform="translate(0.000000,500.000000) scale(0.100000,-0.100000)"
fill="#ffffff" stroke="none">
<path d="M1640 3220 l0 -170 105 0 105 0 -2 168 -3 167 -102 3 -103 3 0 -171z"/>
<path d="M3197 3383 c-4 -3 -7 -80 -7 -170 l0 -163 105 0 105 0 0 170 0 170
-98 0 c-54 0 -102 -3 -105 -7z"/>
<path d="M3946 2575 c-157 -460 -159 -464 -190 -474 -17 -6 -301 -89 -632
-185 l-600 -176 -650 188 -649 187 -162 445 c-89 245 -164 449 -166 455 -6 15
-119 -24 -115 -40 2 -7 80 -225 173 -484 117 -323 174 -469 183 -466 6 2 12
-1 12 -8 0 -7 252 -84 658 -201 362 -103 670 -190 684 -193 20 -4 27 0 31 14
4 16 5 16 6 1 0 -10 4 -18 9 -18 4 -1 307 86 673 192 619 179 667 194 677 218
14 32 332 960 332 970 0 5 -96 40 -111 40 -2 0 -76 -209 -163 -465z"/>
</g>
</svg>
