<?xml version="1.0" standalone="no"?>
<!DOCTYPE svg PUBLIC "-//W3C//DTD SVG 20010904//EN"
 "http://www.w3.org/TR/2001/REC-SVG-20010904/DTD/svg10.dtd">
<svg version="1.0" xmlns="http://www.w3.org/2000/svg"
 width="500.000000pt" height="500.000000pt" viewBox="0 0 500.000000 500.000000"
 preserveAspectRatio="xMidYMid meet">

<g transform="translate(0.000000,500.000000) scale(0.100000,-0.100000)"
fill="#022c22" stroke="#022c22" stroke-width = "6rem">
<path d="M2076 4280 c-39 -9 -72 -22 -74 -28 -2 -6 89 -408 203 -893 113 -485
204 -883 202 -886 -13 -12 -660 -194 -667 -187 -4 5 -158 293 -341 641 l-333
632 -68 -37 c-37 -20 -68 -41 -68 -46 0 -6 146 -288 325 -627 179 -340 325
-620 325 -624 0 -8 -537 -435 -547 -435 -5 0 -139 161 -298 359 l-290 358 -58
-45 c-32 -25 -60 -49 -63 -54 -5 -8 1321 -1657 1358 -1690 19 -17 74 -18 858
-18 l839 0 646 872 c356 479 648 876 651 882 2 6 -25 32 -60 58 l-64 47 -192
-260 c-106 -142 -196 -262 -201 -265 -7 -4 -598 294 -636 320 -1 1 115 309
257 686 176 468 254 687 246 692 -6 3 -41 18 -77 31 l-65 25 -250 -666 c-137
-366 -256 -674 -264 -683 -14 -16 -37 -15 -400 17 -212 20 -388 38 -391 42 -4
4 -100 407 -214 897 -114 490 -210 893 -214 896 -3 3 -37 -2 -75 -11z m868
-1985 c219 -20 410 -41 425 -48 77 -34 681 -352 681 -358 0 -5 -168 -234 -373
-511 l-373 -503 -770 -2 -769 -2 -310 385 c-170 211 -311 388 -313 393 -2 5
118 104 265 222 l268 213 415 122 c228 67 424 123 436 123 11 1 199 -15 418
-34z"/>
</g>
</svg>
